<?xml version="1.0" standalone="no"?>
<!DOCTYPE svg PUBLIC "-//W3C//DTD SVG 20010904//EN"
 "http://www.w3.org/TR/2001/REC-SVG-20010904/DTD/svg10.dtd">
<svg version="1.0" xmlns="http://www.w3.org/2000/svg"
 width="480.000000pt" height="371.000000pt" viewBox="0 0 480.000000 371.000000"
 preserveAspectRatio="xMidYMid meet">

<g transform="translate(0.000000,371.000000) scale(0.100000,-0.100000)"
fill="#000000" stroke="none">
<path d="M2915 3585 c-14 -13 -25 -29 -25 -35 0 -6 64 -76 143 -156 78 -80
147 -155 154 -167 17 -30 16 -102 -1 -135 -16 -30 -85 -92 -218 -195 -47 -37
-88 -73 -91 -80 -14 -42 53 -114 98 -103 34 9 275 265 307 328 34 66 38 154 9
220 -23 54 -304 348 -333 348 -10 0 -30 -11 -43 -25z"/>
<path d="M2005 3528 c-11 -6 -23 -16 -27 -22 -24 -35 -13 -56 287 -591 141
-252 218 -392 237 -430 56 -113 184 -338 195 -342 24 -9 63 7 74 30 11 24 11
22 -196 402 -18 33 -56 105 -85 160 -29 55 -56 105 -60 110 -32 41 -290 585
-290 610 0 3 -11 23 -25 45 -21 33 -31 40 -58 40 -17 0 -41 -6 -52 -12z"/>
<path d="M1680 2873 c-176 -180 -196 -205 -215 -278 -23 -85 -10 -154 43 -223
35 -46 288 -302 298 -302 3 0 19 9 35 21 50 35 41 53 -116 209 -163 162 -177
187 -154 267 10 37 26 56 103 121 50 43 119 100 154 126 46 35 62 53 62 71 0
28 -62 95 -88 95 -9 0 -64 -48 -122 -107z"/>
<path d="M62 1107 l-32 -33 0 -231 0 -231 26 -31 26 -31 211 0 211 0 28 27
c24 23 28 34 28 85 l0 58 -54 0 c-52 0 -55 -1 -58 -27 l-3 -28 -150 0 -150 0
-3 169 c-2 117 1 173 9 182 9 12 40 14 147 12 140 -3 142 -4 155 -48 3 -11 17
-14 56 -12 l51 4 0 54 c0 48 -3 57 -32 84 l-33 29 -201 1 -200 0 -32 -33z"/>
<path d="M672 1114 l-32 -27 0 -244 0 -244 28 -24 c27 -24 29 -24 234 -25 204
0 207 0 235 24 l28 24 3 237 4 237 -33 34 -33 34 -201 0 -201 0 -32 -26z m376
-271 l2 -183 -150 0 -150 0 0 178 c0 98 3 182 7 186 4 3 70 5 147 4 l141 -3 3
-182z"/>
<path d="M1260 845 l0 -295 234 0 c233 0 235 0 260 24 l26 23 0 184 0 184 -88
88 -87 87 -173 0 -172 0 0 -295z m345 124 l65 -62 0 -124 0 -123 -150 0 -150
0 0 178 c0 98 2 181 5 183 2 3 41 6 85 8 l81 2 64 -62z"/>
<path d="M1870 845 l0 -295 245 0 245 0 0 55 0 55 -190 0 -190 0 0 63 0 62
175 -2 175 -1 0 59 0 59 -175 0 -176 0 3 63 3 62 188 3 187 2 0 55 0 55 -245
0 -245 0 0 -295z"/>
<path d="M2527 1052 l-87 -87 0 -207 0 -206 51 -4 c28 -1 53 -1 55 1 2 2 4 42
4 88 l0 83 150 0 150 0 0 -85 0 -85 55 0 55 0 0 295 0 295 -173 0 -172 0 -88
-88z m311 -30 c8 -3 12 -31 12 -93 l0 -89 -150 0 -150 0 0 33 c0 28 10 44 65
96 l64 62 73 -2 c40 -1 79 -4 86 -7z"/>
<path d="M3057 1133 c-4 -3 -7 -136 -7 -295 l0 -288 60 0 60 0 0 85 0 85 92 0
92 0 58 -57 c43 -43 58 -65 58 -85 0 -27 2 -28 55 -28 l55 0 0 59 c0 50 -3 61
-25 77 -14 10 -25 26 -25 35 0 8 11 26 25 39 25 23 25 26 25 174 l0 150 -32
28 -33 28 -226 0 c-124 0 -229 -3 -232 -7z m408 -201 l0 -93 -144 0 c-79 0
-146 2 -149 5 -6 7 -3 167 4 178 3 5 69 7 147 6 l142 -3 0 -93z"/>
<path d="M3640 1086 l0 -55 44 -6 c24 -4 71 -5 105 -3 l61 3 0 -238 0 -238 58
3 57 3 0 225 c0 124 4 231 8 238 6 8 38 12 103 12 l94 0 0 55 0 55 -265 0
-265 0 0 -54z"/>
<path d="M4267 1112 c-26 -27 -27 -31 -27 -156 0 -174 -12 -165 228 -166 l182
0 0 -65 0 -65 -150 0 -150 0 0 30 c0 30 -1 30 -55 30 l-55 0 0 -62 c0 -53 4
-67 24 -85 22 -22 31 -22 233 -23 l211 -1 26 26 c25 25 26 30 26 149 0 121 0
123 -28 149 l-28 27 -178 0 -177 0 3 63 3 62 145 0 145 0 4 -25 c4 -33 11 -36
65 -32 l46 4 0 55 c0 46 -4 59 -27 84 l-28 29 -206 0 -205 0 -27 -28z"/>
<path d="M1175 129 c14 -44 40 -92 50 -91 6 0 14 14 19 31 11 40 23 39 34 -1
4 -17 13 -33 19 -35 11 -4 58 105 49 114 -10 10 -25 -8 -31 -37 -9 -39 -20
-38 -31 3 -6 17 -16 32 -24 32 -8 0 -18 -15 -24 -32 -11 -41 -21 -42 -32 -1
-5 17 -15 33 -23 36 -10 3 -11 -2 -6 -19z"/>
<path d="M1380 90 l0 -61 55 3 c66 4 78 22 18 26 -49 4 -59 22 -13 22 17 0 30
5 30 10 0 6 -13 10 -30 10 -20 0 -30 5 -30 15 0 11 12 15 45 15 25 0 45 5 45
10 0 6 -27 10 -60 10 l-60 0 0 -60z"/>
<path d="M1570 90 c0 -47 3 -60 15 -60 10 0 15 10 15 30 0 33 16 39 36 13 12
-17 14 -16 38 6 l26 24 0 -37 c0 -62 25 -38 28 27 4 68 -13 76 -55 26 l-26
-30 -21 30 c-11 17 -29 31 -38 31 -15 0 -18 -9 -18 -60z"/>
<path d="M1783 95 c-15 -30 -23 -58 -19 -62 4 -4 12 0 17 10 13 23 75 23 88 0
5 -10 13 -14 17 -10 12 11 -43 117 -61 117 -8 0 -27 -24 -42 -55z m57 -1 c0
-8 -7 -14 -15 -14 -15 0 -21 21 -9 33 10 9 24 -2 24 -19z"/>
<path d="M1922 93 c2 -34 8 -58 16 -61 7 -2 12 5 12 17 0 33 20 35 51 5 31
-30 53 -26 26 4 -23 25 -21 41 5 69 31 33 2 30 -33 -3 -29 -28 -49 -25 -49 7
0 10 -7 19 -15 19 -13 0 -15 -11 -13 -57z"/>
<path d="M2080 90 l0 -60 55 0 c42 0 55 4 55 15 0 8 -8 14 -17 13 -38 -3 -64
2 -58 12 3 6 19 10 36 10 16 0 29 5 29 10 0 6 -16 10 -35 10 -24 0 -35 5 -35
15 0 11 11 15 40 15 22 0 40 5 40 10 0 6 -25 10 -55 10 l-55 0 0 -60z"/>
<path d="M2272 93 c4 -81 28 -85 28 -4 0 48 -3 61 -15 61 -13 0 -15 -11 -13
-57z"/>
<path d="M2330 141 c0 -5 10 -11 23 -13 19 -3 22 -10 25 -51 2 -33 7 -47 18
-47 10 0 14 13 14 50 0 47 2 50 25 50 14 0 25 5 25 10 0 6 -28 10 -65 10 -36
0 -65 -4 -65 -9z"/>
<path d="M2537 144 c-10 -11 -8 -102 2 -109 6 -3 15 3 21 14 6 13 23 21 47 23
43 4 64 29 47 56 -11 18 -102 30 -117 16z m88 -34 c0 -10 -12 -16 -32 -18 -32
-3 -45 13 -26 32 13 12 58 2 58 -14z"/>
<path d="M2703 138 c-34 -44 -20 -94 29 -103 72 -14 119 37 84 90 -13 20 -25
25 -60 25 -24 0 -48 -6 -53 -12z m85 -20 c30 -30 -4 -72 -50 -60 -23 6 -33 39
-18 57 15 18 52 19 68 3z"/>
<path d="M2870 135 c-17 -21 -5 -45 24 -45 13 0 31 -3 40 -6 31 -12 16 -24
-29 -24 -25 0 -45 -4 -45 -9 0 -15 39 -23 75 -17 63 12 53 76 -12 76 -13 0
-23 5 -23 11 0 7 14 10 35 7 24 -3 35 0 35 9 0 19 -84 17 -100 -2z"/>
<path d="M3020 135 c-20 -24 -5 -42 39 -50 55 -9 52 -25 -4 -25 -45 0 -60 -12
-29 -24 24 -9 63 -7 85 4 40 22 12 70 -40 70 -12 0 -21 5 -21 10 0 6 16 10 35
10 19 0 35 5 35 10 0 16 -86 12 -100 -5z"/>
<path d="M3160 90 c0 -47 3 -60 15 -60 12 0 15 13 15 60 0 47 -3 60 -15 60
-12 0 -15 -13 -15 -60z"/>
<path d="M3222 93 l3 -58 42 -3 c62 -5 82 10 79 55 -3 56 -11 63 -72 63 l-55
0 3 -57z m98 27 c0 -5 -16 -10 -36 -10 -21 0 -33 4 -29 10 3 6 19 10 36 10 16
0 29 -4 29 -10z m0 -50 c0 -5 -16 -10 -36 -10 -21 0 -33 4 -29 10 3 6 19 10
36 10 16 0 29 -4 29 -10z"/>
<path d="M3382 93 l3 -58 58 -3 c48 -3 57 0 57 14 0 13 -8 15 -40 12 -44 -4
-50 3 -50 58 0 24 -5 34 -15 34 -13 0 -15 -11 -13 -57z"/>
<path d="M3532 93 l3 -58 53 0 c63 0 75 19 14 23 -47 3 -48 22 -1 22 16 0 29
5 29 10 0 6 -16 10 -35 10 -24 0 -35 5 -35 15 0 11 12 15 45 15 25 0 45 5 45
10 0 6 -27 10 -60 10 l-61 0 3 -57z"/>
</g>
</svg>
